<svg xmlns="http://www.w3.org/2000/svg" width="146" height="62" viewBox="0 0 146 62" version="1.1"><path d="M 50.124 25.835 L 44.749 30.606 49.124 31.670 C 51.531 32.255, 54.288 33.067, 55.250 33.474 C 56.815 34.136, 57 33.515, 57 27.607 C 57 23.973, 56.663 21.014, 56.250 21.032 C 55.837 21.049, 53.081 23.211, 50.124 25.835 M 104.124 25.835 L 98.749 30.606 103.124 31.670 C 105.531 32.255, 108.287 33.067, 109.250 33.474 C 110.815 34.136, 111 33.515, 111 27.607 C 111 23.973, 110.662 21.014, 110.250 21.032 C 109.838 21.049, 107.081 23.211, 104.124 25.835 M 124.801 36.533 L 121.101 39.934 124.744 40.940 C 126.748 41.493, 128.554 41.780, 128.756 41.577 C 128.959 41.374, 128.985 39.391, 128.813 37.171 L 128.500 33.133 124.801 36.533" stroke="none" fill="#ee7006" fill-rule="evenodd"/><path d="M 36.688 5.646 C 36.309 6.024, 36.001 7.946, 36.002 9.917 L 36.003 13.500 21.502 13.199 C 13.526 13.033, 7 13.187, 7 13.541 C 7 13.895, 7.900 15.329, 9 16.727 C 11.652 20.099, 11.522 23.820, 8.500 31 C 7.125 34.267, 6 38.101, 6 39.520 C 6 43.922, 8.852 48.030, 13.316 50.057 C 18.167 52.259, 25.424 52.701, 24.708 50.750 C 24.456 50.063, 23.679 49.634, 22.981 49.798 C 20.492 50.382, 15.905 48.791, 12.976 46.326 C 9.205 43.154, 9.125 39.843, 12.608 31.137 C 14.523 26.352, 15.088 23.470, 14.731 20.308 C 14.312 16.588, 14.502 16, 16.123 16 C 17.803 16, 18 16.841, 18 24 C 18 28.919, 18.404 32, 19.050 32 C 20.506 32, 26.137 29.077, 28.250 27.224 C 29.896 25.781, 30 26.110, 30 32.786 C 30 39.414, 31.157 42.444, 32.894 40.363 C 34.011 39.024, 32.965 20, 31.775 20 C 31.207 20, 28.999 21.575, 26.868 23.500 C 24.738 25.425, 22.546 27, 21.997 27 C 21.449 27, 21 24.525, 21 21.500 L 21 16 28.500 16 L 36 16 36 36.073 C 36 54.656, 36.130 56.121, 37.750 55.801 C 39.360 55.483, 39.472 53.879, 39.150 35.728 L 38.800 16 47.150 16.034 L 55.500 16.067 51.500 19.284 C 43.164 25.987, 39.668 29.692, 40.250 31.209 C 40.569 32.040, 42.961 33.256, 45.566 33.912 C 53.512 35.913, 56 37.627, 56 41.099 C 56 43.464, 56.392 44.071, 57.750 43.809 C 59.233 43.522, 59.463 42.482, 59.257 36.985 C 59.081 32.279, 59.269 31.093, 59.942 32.662 C 61.493 36.275, 65.012 36.688, 67.691 33.572 C 71.220 29.470, 70.332 24.078, 65.249 18.750 L 62.626 16 67.292 16 L 71.958 16 72.229 35.750 C 72.459 52.518, 72.726 55.500, 74 55.500 C 75.224 55.500, 75.601 53.201, 76.047 43 C 76.348 36.125, 76.686 31.647, 76.797 33.050 C 77.062 36.383, 78.777 38, 82.045 38 C 85.152 38, 88.498 34.741, 87.653 32.537 C 86.896 30.565, 83.391 30.539, 82.638 32.500 C 81.751 34.812, 80 34.275, 80 31.691 C 80 28.516, 82.256 25.709, 84.460 26.141 C 87.780 26.793, 90.342 31.575, 90.805 37.987 C 91.112 42.222, 91.648 44, 92.620 44 C 93.728 44, 94 41.236, 94 30 L 94 16 102.091 16 L 110.181 16 102.841 22.133 C 93.507 29.931, 93.275 31.720, 101.287 34.099 C 108.259 36.169, 109.785 37.320, 110.191 40.815 C 110.375 42.402, 111.209 43.617, 112.250 43.815 C 113.803 44.109, 114.013 43.152, 114.116 35.323 C 114.180 30.470, 114.453 27.400, 114.724 28.500 C 115.506 31.682, 117.042 33, 119.967 33 C 122.664 33, 126 30.367, 126 28.239 C 126 26.264, 121.762 25.604, 120.466 27.377 C 118.861 29.573, 118 29.418, 118 26.934 C 118 21.051, 122.441 19.202, 125.927 23.635 C 129.065 27.624, 128.498 29.373, 122.586 33.934 C 119.608 36.231, 116.915 38.778, 116.603 39.593 C 115.993 41.183, 116.160 41.275, 123 43.106 C 126.930 44.159, 127.195 44.390, 125.095 44.929 C 121.805 45.772, 120.183 48.478, 121.606 50.750 C 122.973 52.933, 127.607 53.571, 129.669 51.860 C 130.957 50.791, 131.450 50.895, 132.608 52.479 C 133.374 53.526, 134 55.684, 134 57.274 C 134 59.140, 134.444 60.021, 135.250 59.756 C 137.511 59.014, 137.163 54.520, 134.546 50.663 C 132.386 47.479, 132 45.791, 132 39.515 C 132 35.446, 132.346 31.904, 132.768 31.643 C 133.191 31.382, 133.367 32.953, 133.159 35.134 C 132.742 39.498, 135.446 43.954, 137.353 42.047 C 138.019 41.381, 137.794 40.430, 136.676 39.195 C 134.466 36.752, 134.561 34.827, 137.050 31.663 C 138.727 29.532, 138.894 28.671, 137.968 26.941 C 137.116 25.349, 136.236 24.975, 134.418 25.431 C 132.101 26.013, 132 25.828, 132 21.019 L 132 16 137 16 C 141.887 16, 143.575 14.818, 140.418 13.607 C 139.548 13.273, 124.698 13, 107.418 13 L 76 13 76 9.559 C 76 5.813, 74.297 3.923, 72.904 6.122 C 72.423 6.880, 72.024 8.738, 72.015 10.250 L 72 13 55.750 13.001 L 39.500 13.001 39.500 9.344 C 39.500 5.874, 38.187 4.147, 36.688 5.646 M 76.086 23.250 C 76.152 28.842, 76.365 29.856, 77.017 27.686 C 77.481 26.138, 78.398 24.226, 79.053 23.436 C 80.775 21.362, 85.313 21.672, 88.365 24.073 L 91 26.145 91 21.073 L 91 16 83.500 16 L 76 16 76.086 23.250 M 114.002 20.250 L 114.003 24.500 115.752 21 C 117.940 16.619, 121.929 15.832, 126.146 18.949 L 129 21.060 129 18.530 C 129 16.048, 128.857 16, 121.500 16 L 114 16 114.002 20.250 M 59 22.327 C 59 24.351, 59.396 24.595, 62.046 24.207 C 64.958 23.779, 65.017 23.677, 63.391 21.880 C 61.064 19.308, 59 19.518, 59 22.327 M 50.124 25.835 L 44.749 30.606 49.124 31.670 C 51.531 32.255, 54.288 33.067, 55.250 33.474 C 56.815 34.136, 57 33.515, 57 27.607 C 57 23.973, 56.663 21.014, 56.250 21.032 C 55.837 21.049, 53.081 23.211, 50.124 25.835 M 104.124 25.835 L 98.749 30.606 103.124 31.670 C 105.531 32.255, 108.287 33.067, 109.250 33.474 C 110.815 34.136, 111 33.515, 111 27.607 C 111 23.973, 110.662 21.014, 110.250 21.032 C 109.838 21.049, 107.081 23.211, 104.124 25.835 M 65 30 C 65 30.733, 65.300 31.033, 65.667 30.667 C 66.033 30.300, 66.033 29.700, 65.667 29.333 C 65.300 28.967, 65 29.267, 65 30 M 124.801 36.533 L 121.101 39.934 124.744 40.940 C 126.748 41.493, 128.554 41.780, 128.756 41.577 C 128.959 41.374, 128.985 39.391, 128.813 37.171 L 128.500 33.133 124.801 36.533 M 124 49 C 124 49.550, 124.675 50, 125.500 50 C 126.325 50, 127 49.550, 127 49 C 127 48.450, 126.325 48, 125.500 48 C 124.675 48, 124 48.450, 124 49" stroke="none" fill="#0b0a09" fill-rule="evenodd"/></svg>